<?xml version="1.0" encoding="UTF-8" standalone="no"?>
<!-- Created with Inkscape (http://www.inkscape.org/) -->

<svg
   width="512"
   height="512"
   viewBox="0 0 135.46666 135.46666"
   version="1.1"
   id="svg5"
   inkscape:version="1.1.2 (b8e25be833, 2022-02-05)"
   sodipodi:docname="logo.svg"
   inkscape:export-filename="C:\home\dev\src\github.com\Project-Faster\qpep-faster\docs\logo.png"
   inkscape:export-xdpi="96"
   inkscape:export-ydpi="96"
   xmlns:inkscape="http://www.inkscape.org/namespaces/inkscape"
   xmlns:sodipodi="http://sodipodi.sourceforge.net/DTD/sodipodi-0.dtd"
   xmlns="http://www.w3.org/2000/svg"
   xmlns:svg="http://www.w3.org/2000/svg">
  <sodipodi:namedview
     id="namedview7"
     pagecolor="#ffffff"
     bordercolor="#666666"
     borderopacity="1.0"
     inkscape:pageshadow="2"
     inkscape:pageopacity="0.0"
     inkscape:pagecheckerboard="0"
     inkscape:document-units="px"
     showgrid="false"
     units="px"
     width="512px"
     inkscape:zoom="1.0595392"
     inkscape:cx="286.91718"
     inkscape:cy="271.81628"
     inkscape:window-width="1920"
     inkscape:window-height="1027"
     inkscape:window-x="-8"
     inkscape:window-y="22"
     inkscape:window-maximized="1"
     inkscape:current-layer="g10" />
  <defs
     id="defs2" />
  <g
     inkscape:label="Livello 1"
     inkscape:groupmode="layer"
     id="layer1">
    <g
       id="g1179"
       transform="matrix(4.8820312,0,0,4.8820312,-163.38769,-653.88138)">
      <path
         style="fill:#333333;fill-opacity:1;stroke-width:0.352778"
         d="m 46.471133,159.08486 c -0.431228,-0.30204 -0.784051,-0.77829 -0.784051,-1.05833 0,-0.28245 -0.330664,-0.50916 -0.742609,-0.50916 -0.650737,0 -0.723267,-0.16367 -0.586261,-1.32292 0.08599,-0.72761 0.278401,-1.60073 0.427575,-1.94028 0.224343,-0.51065 0.08923,-0.61736 -0.781654,-0.61736 -0.579085,0 -1.250507,-0.23813 -1.492051,-0.52917 -0.241543,-0.29104 -0.776918,-0.5417 -1.189723,-0.55702 -0.490222,-0.0182 -0.567011,-0.0891 -0.221388,-0.20433 0.291042,-0.0971 0.767292,-0.25463 1.058334,-0.35013 0.436623,-0.14326 0.409407,-0.26177 -0.155621,-0.6776 -0.646363,-0.47569 -0.623473,-0.50397 0.407945,-0.50397 0.91905,0 1.063407,0.11214 0.908226,0.70555 -0.117725,0.45018 -0.01,0.70751 0.29761,0.71096 0.376188,0.004 0.365851,0.0805 -0.04705,0.34738 -0.372899,0.24098 0.121948,0.34357 1.675694,0.34737 l 2.204861,0.005 v -1.5875 c 0,-1.67308 -0.795563,-2.27765 -1.16055,-0.88194 -0.113563,0.43427 -0.481195,0.70556 -0.956117,0.70556 -0.474921,0 -0.842553,-0.27129 -0.956116,-0.70556 -0.120974,-0.46261 -0.481194,-0.70556 -1.046126,-0.70556 -0.48458,0 -0.766211,-0.15437 -0.643591,-0.35277 0.119916,-0.19403 1.399285,-0.35278 2.843042,-0.35278 1.594577,0 2.625013,-0.1451 2.625013,-0.36962 0,-0.2033 0.408294,-0.74802 0.907321,-1.2105 0.747726,-0.69297 0.840804,-0.96517 0.529166,-1.54746 -0.603339,-1.12736 -0.443498,-2.13081 0.487756,-3.06207 1.768199,-1.7682 4.142048,-0.66408 4.288409,1.99462 0.05032,0.91417 -0.131944,1.88624 -0.444658,2.37145 -0.291468,0.45223 -0.450696,1.02875 -0.353841,1.28115 0.251242,0.65473 2.76123,0.88411 3.340097,0.30524 0.257603,-0.2576 0.615779,-0.46837 0.795948,-0.46837 0.423724,0 0.429273,3.07051 0.006,3.3321 -0.65359,0.40394 0.475918,2.40611 1.631751,2.89245 1.973275,0.83029 2.488898,2.94394 1.04832,4.29729 -1.218394,1.14462 -2.855984,1.01993 -3.825405,-0.29128 -0.745314,-1.00809 -0.904915,-1.05833 -3.36195,-1.05833 -1.484476,0 -2.579491,0.14975 -2.579491,0.35277 0,0.70522 -1.435028,1.76389 -2.390949,1.76389 -0.538911,0 -1.332661,-0.24713 -1.763889,-0.54917 z m 2.988638,-0.6744 c 1.030077,-0.90622 0.618062,-1.2177 -0.602476,-0.45546 -0.557767,0.34833 -0.84377,0.34833 -1.401537,0 -0.8903,-0.556 -1.06312,-0.54988 -1.06312,0.0376 0,0.41522 1.131889,1.19646 1.832411,1.26476 0.134701,0.0131 0.690326,-0.36798 1.234722,-0.84692 z m 10.259926,0.32163 c 1.331829,-0.93286 0.756908,-3.68417 -0.769851,-3.68417 -0.844284,0 -0.909252,0.46724 -0.119702,0.86087 1.103422,0.55012 1.088668,2.09564 -0.02151,2.25302 -0.447242,0.0634 -1.046391,-0.0783 -1.331442,-0.31486 -0.285051,-0.23657 -0.6335,-0.31446 -0.774332,-0.1731 -0.292049,0.29316 1.197001,1.6074 1.821195,1.6074 0.226374,0 0.764412,-0.24712 1.19564,-0.54916 z m -0.62706,-1.76471 c 0,-0.27959 -0.124732,-0.50835 -0.277183,-0.50835 -0.15245,0 -0.277183,0.30585 -0.277183,0.67966 0,0.37381 0.124733,0.60256 0.277183,0.50834 0.152451,-0.0942 0.277183,-0.40006 0.277183,-0.67965 z m -8.113889,-1.3471 c 0,-1.64612 -0.628615,-2.03965 -3.05704,-1.91377 -1.948778,0.10102 -2.090238,0.1708 -2.659984,1.31217 -0.33096,0.66301 -0.520029,1.3377 -0.420152,1.4993 0.09988,0.16161 1.5216,0.29383 3.159385,0.29383 h 2.977791 z m 2.822222,0.83875 c 0,-0.19403 -0.485619,-0.35278 -1.079153,-0.35278 -0.629603,0 -0.988327,0.14696 -0.861124,0.35278 0.119916,0.19403 0.605534,0.35278 1.079153,0.35278 0.473619,0 0.861124,-0.15875 0.861124,-0.35278 z m 3.19491,-0.44097 c 0.854088,-1.0238 0.848492,-1.73737 -0.02708,-3.45364 -0.646952,-1.26813 -1.598682,-1.79028 -2.188359,-1.2006 -0.108051,0.10805 0.03597,1.08651 0.320043,2.17435 0.284074,1.08783 0.440258,2.26943 0.347075,2.62576 -0.240856,0.92104 0.73497,0.8291 1.548321,-0.14587 z m -2.143381,-0.52917 c -0.0037,-0.33955 -0.20983,-1.40043 -0.457971,-2.35752 -0.362583,-1.39849 -0.642635,-1.80397 -1.426355,-2.06521 -1.353184,-0.45106 -1.573242,-0.0516 -0.45578,0.82743 0.71352,0.56125 0.9358,1.04843 0.9358,2.05105 0,1.23302 0.484953,2.16161 1.128888,2.16161 0.155223,0 0.279161,-0.27781 0.275418,-0.61736 z m -2.109862,-1.50803 c 0,-1.2171 -0.135683,-1.47143 -0.950216,-1.78112 -1.144952,-0.43531 -3.357146,-0.2964 -3.526801,0.22146 -0.06701,0.20453 0.55572,0.52203 1.383842,0.70555 1.28089,0.28386 1.52234,0.4785 1.617302,1.30381 0.07886,0.68536 0.311862,0.97014 0.79375,0.97014 0.561324,0 0.682123,-0.25144 0.682123,-1.41984 z m -1.424788,-3.14072 c 0.200159,-0.37399 0.259698,-0.96931 0.132311,-1.32291 -0.194479,-0.53984 -0.09165,-0.51566 0.641363,0.15083 1.828817,1.66284 2.349151,0.59786 0.612992,-1.25463 -1.410866,-1.50541 -2.618653,-1.42523 -3.742844,0.24847 -0.442829,0.65928 -0.805145,1.57209 -0.805145,2.02847 0,0.73165 0.16539,0.82977 1.398699,0.82977 1.020125,0 1.4972,-0.18405 1.762624,-0.68 z m 4.511758,-0.64291 c 0.08612,-0.25865 -0.157043,-0.44098 -0.588128,-0.44098 -0.43333,0 -0.734953,0.22779 -0.734953,0.55504 0,0.64836 1.100823,0.55346 1.323081,-0.11406 z m 1.851919,-0.0882 c 0,-0.38805 -0.15875,-0.70555 -0.352778,-0.70555 -0.194028,0 -0.352778,0.3175 -0.352778,0.70555 0,0.38806 0.15875,0.70556 0.352778,0.70556 0.194028,0 0.352778,-0.3175 0.352778,-0.70556 z m -11.994444,0 c 0,-0.19403 -0.247494,-0.35278 -0.549986,-0.35278 -0.302493,0 -0.451874,0.15875 -0.331958,0.35278 0.119916,0.19403 0.367409,0.35278 0.549986,0.35278 0.182577,0 0.331958,-0.15875 0.331958,-0.35278 z m 7.921726,-3.47808 c 0.260361,-0.82032 -0.123402,-1.88479 -0.619849,-1.71931 -0.619471,0.2065 -1.078008,1.18486 -0.842704,1.79805 0.299397,0.78022 1.205412,0.73144 1.462553,-0.0787 z m -1.918767,-1.13233 c 0.111663,-0.47301 0.509421,-0.90938 0.891675,-0.97823 1.081765,-0.19483 1.314593,-0.61562 0.687568,-1.24265 -1.223041,-1.22304 -3.348869,-0.25578 -3.348869,1.52375 0,1.76562 1.388282,2.31253 1.769626,0.69713 z"
         id="path1181"
         sodipodi:nodetypes="cssssssscssssccccsssssssssssssssssssssssccsssssssssssssssssssssssssscsssssssssssscssssscsssssssssssssssssssssssssssssssssssssss" />
    </g>
    <g
       id="g10"
       transform="matrix(4.8820312,0,0,4.8820312,-163.38769,-653.88138)">
      <ellipse
         style="fill:#333333;stroke-width:0.78896;paint-order:markers fill stroke;stop-color:#000000"
         id="path1209"
         cx="37.146149"
         cy="149.63596"
         rx="3.4725153"
         ry="0.17645429" />
      <ellipse
         style="fill:#333333;stroke-width:0.677175;paint-order:markers fill stroke;stop-color:#000000"
         id="ellipse4093"
         cx="38.0093"
         cy="150.78683"
         rx="2.5582106"
         ry="0.17645429" />
      <ellipse
         style="fill:#333333;stroke-width:0.57063;paint-order:markers fill stroke;stop-color:#000000"
         id="ellipse4095"
         cx="38.76376"
         cy="151.97607"
         rx="1.8165369"
         ry="0.17645429" />
    </g>
  </g>
</svg>
